<?xml version="1.0" encoding="UTF-8" standalone="no"?>
<!-- Created with Inkscape (http://www.inkscape.org/) -->

<svg
   width="144.33475mm"
   height="128.18535mm"
   viewBox="0 0 144.33475 128.18535"
   version="1.1"
   id="svg5"
   xml:space="preserve"
   inkscape:export-filename="like.svg"
   inkscape:export-xdpi="4.8380952"
   inkscape:export-ydpi="4.8380952"
   xmlns:inkscape="http://www.inkscape.org/namespaces/inkscape"
   xmlns:sodipodi="http://sodipodi.sourceforge.net/DTD/sodipodi-0.dtd"
   xmlns="http://www.w3.org/2000/svg"
   xmlns:svg="http://www.w3.org/2000/svg"><sodipodi:namedview
     id="namedview7"
     pagecolor="#ffffff"
     bordercolor="#111111"
     borderopacity="1"
     inkscape:showpageshadow="0"
     inkscape:pageopacity="0"
     inkscape:pagecheckerboard="1"
     inkscape:deskcolor="#d1d1d1"
     inkscape:document-units="mm"
     showgrid="false" /><defs
     id="defs2" /><g
     inkscape:label="Слой 1"
     inkscape:groupmode="layer"
     id="layer1"
     transform="translate(-23.888356,-36.010802)"><path
       style="fill:#ffffff;stroke-width:0.282222"
       d="m 93.162381,163.87784 c -1.47536,-0.54976 -1.5235,-0.58909 -17.285538,-14.12215 C 50.78641,128.2134 43.735995,121.54463 36.910458,112.89862 32.515275,107.33117 28.412074,100.18824 26.535182,94.837156 c -4.200113,-11.97469 -3.3638,-25.718402 2.240104,-36.813192 5.821538,-11.52566 16.038841,-19.27977 28.333777,-21.50306 3.70992,-0.67087 10.60548,-0.68177 13.88032,-0.022 9.58511,1.9312 17.338158,6.95211 24.290238,15.73044 l 0.77611,0.97999 0.77611,-0.97999 c 6.952069,-8.77833 14.705119,-13.79924 24.290229,-15.73044 3.27484,-0.65982 10.17041,-0.64891 13.88032,0.022 12.29494,2.22329 22.51224,9.9774 28.33378,21.50307 5.6039,11.09478 6.44022,24.838492 2.2401,36.813182 -1.20847,3.44539 -3.85718,8.653764 -6.24328,12.276654 -5.39434,8.1904 -12.27558,15.60356 -25.17727,27.12348 -7.93646,7.08646 -32.93171,28.41481 -34.12289,29.11692 -1.005289,0.59253 -1.682239,0.75099 -3.527769,0.82572 -1.47743,0.0598 -2.65765,-0.0468 -3.34268,-0.30209 z m 16.592759,-19.69227 c 17.63375,-15.12784 24.35263,-21.14848 30.07992,-26.95394 6.51386,-6.60275 8.86813,-9.36455 12.17976,-14.28811 4.97254,-7.392894 7.42677,-14.477934 7.74492,-22.358584 0.65069,-16.117742 -8.25232,-30.116172 -22.06453,-34.692652 -6.5028,-2.15461 -14.06934,-2.00577 -20.1906,0.39717 -5.20185,2.04201 -10.48796,6.4125 -14.52666,12.01047 -1.0037,1.3912 -2.19908,3.04965 -2.65641,3.68544 -1.003949,1.39572 -2.552749,2.19133 -4.265809,2.19133 -1.71306,0 -3.26186,-0.79561 -4.26581,-2.19133 -0.45733,-0.63579 -1.65272,-2.29424 -2.65641,-3.68544 -6.389538,-8.85641 -14.172638,-13.41322 -23.698888,-13.8751 -19.029777,-0.92267 -33.922808,15.35563 -33.082911,36.160112 0.43984,10.89495 4.99577,20.464964 15.047819,31.608874 3.384483,3.75211 10.957642,11.10878 16.341752,15.8746 6.90976,6.11626 32.089178,27.72873 32.305118,27.72873 0.0956,0 6.264489,-5.2252 13.708739,-11.61157 z"
       id="path802" /></g></svg>
