<?xml version="1.0" encoding="UTF-8" standalone="no"?>
<!-- Created with Inkscape (http://www.inkscape.org/) -->

<svg
   width="120.43076mm"
   height="144.37573mm"
   viewBox="0 0 120.43076 144.37573"
   version="1.1"
   id="svg5"
   xml:space="preserve"
   inkscape:export-filename="like.svg"
   inkscape:export-xdpi="8.4499998"
   inkscape:export-ydpi="8.4499998"
   xmlns:inkscape="http://www.inkscape.org/namespaces/inkscape"
   xmlns:sodipodi="http://sodipodi.sourceforge.net/DTD/sodipodi-0.dtd"
   xmlns="http://www.w3.org/2000/svg"
   xmlns:svg="http://www.w3.org/2000/svg"><sodipodi:namedview
     id="namedview7"
     pagecolor="#ffffff"
     bordercolor="#111111"
     borderopacity="1"
     inkscape:showpageshadow="0"
     inkscape:pageopacity="0"
     inkscape:pagecheckerboard="1"
     inkscape:deskcolor="#d1d1d1"
     inkscape:document-units="mm"
     showgrid="false" /><defs
     id="defs2" /><g
     inkscape:label="Слой 1"
     inkscape:groupmode="layer"
     id="layer1"
     transform="translate(-52.130067,-25.11139)"><path
       style="fill:#ffffff;stroke-width:0.282222"
       d="m 73.153106,169.27652 c -6.07269,-0.89972 -10.07999,-2.84896 -14.16088,-6.88817 -5.8198,-5.76036 -7.54697,-12.22906 -6.63124,-24.83555 0.60116,-8.27575 2.10116,-16.00897 4.18341,-21.56745 1.22605,-3.27288 3.88614,-8.26545 5.56955,-10.45316 5.12361,-6.658521 12.35886,-10.359311 20.55874,-10.515681 3.06766,-0.0585 3.33641,0.0556 9.78112,4.15223 4.89547,3.111851 5.13172,3.236481 8.511744,4.490351 4.71771,1.7501 7.06062,2.19364 11.51909,2.18069 6.92579,-0.0201 12.3516,-1.85309 19.94616,-6.738331 6.62773,-4.26331 7.0404,-4.40949 11.30713,-4.00522 15.18998,1.43926 24.46188,12.984941 27.86262,34.695461 1.19734,7.64386 1.28889,17.97084 0.19639,22.15444 -2.19867,8.4196 -8.49332,14.51428 -17.3874,16.83501 l -2.54,0.66277 -38.52333,0.04 c -21.187834,0.022 -39.274734,-0.0713 -40.193104,-0.20739 z m 78.389584,-8.57232 c 4.67554,-0.83336 8.74709,-3.6597 10.71325,-7.43679 1.34979,-2.59301 1.89079,-5.25223 1.88779,-9.27922 -0.008,-11.169 -2.00083,-21.8751 -5.29463,-28.44873 -3.68207,-7.34853 -8.32853,-11.02368 -15.13956,-11.97471 -2.27489,-0.31765 -1.711,-0.55029 -7.32356,3.02133 -4.90468,3.12114 -7.64501,4.44385 -12.06381,5.82298 -4.38203,1.36766 -7.54734,1.8604 -11.95097,1.8604 -4.53041,0 -7.95238,-0.5494 -12.31856,-1.97777 -4.649374,-1.52102 -6.872384,-2.61985 -12.197004,-6.02899 l -4.68678,-3.00076 -2.05632,0.28756 c -7.85225,1.09808 -13.23573,6.0636 -16.67093,15.37663 -2.53886,6.88304 -4.2603,19.28672 -3.77972,27.23444 0.49105,8.12067 5.14542,13.32239 13.12548,14.66903 0.72475,0.1223 18.01823,0.23287 38.429954,0.24571 30.61545,0.0193 37.49965,-0.0457 39.32537,-0.37111 z M 108.54844,94.487099 C 97.415776,93.723019 87.134796,87.199979 81.234826,77.157247 76.110366,68.434552 75.279216,56.39981 79.145186,46.900022 83.297066,36.697651 92.679116,28.542246 103.0451,26.124866 c 12.38737,-2.888774 24.28245,0.455953 33.04801,9.292628 6.04542,6.094472 9.29169,13.065989 9.94931,21.366643 0.66014,8.332534 -1.14118,15.5752 -5.55609,22.339612 -1.68499,2.58169 -7.26239,8.16507 -9.7925,9.80301 -6.72096,4.35096 -13.81479,6.13211 -22.14539,5.56034 z m 5.60872,-8.44604 c 3.35755,-0.35365 5.57424,-0.92863 8.13336,-2.1097 7.19247,-3.319438 12.7338,-9.846654 14.65499,-17.26235 0.58389,-2.253792 0.72248,-3.466597 0.73647,-6.445094 0.0198,-4.205932 -0.31134,-6.288995 -1.53887,-9.68142 -2.35287,-6.50249 -8.98225,-13.064527 -15.64004,-15.481175 -4.52161,-1.641255 -10.94969,-1.919369 -15.76463,-0.682064 -8.732114,2.243903 -16.429904,9.930119 -18.817394,18.789104 -0.87641,3.251967 -0.88856,10.005813 -0.0239,13.301558 1.20162,4.580323 3.09056,7.861427 6.69347,11.62659 4.47251,4.673951 9.615334,7.255181 15.816744,7.938601 2.83262,0.31217 2.84238,0.31218 5.74984,0.006 z"
       id="path960" /></g></svg>
