<?xml version="1.0" encoding="UTF-8" standalone="no"?>
<!-- Created with Inkscape (http://www.inkscape.org/) -->

<svg
   width="144.46465mm"
   height="144.44412mm"
   viewBox="0 0 144.46465 144.44412"
   version="1.1"
   id="svg5"
   xml:space="preserve"
   inkscape:export-filename="profile_inactive.svg"
   inkscape:export-xdpi="10.123659"
   inkscape:export-ydpi="10.123659"
   xmlns:inkscape="http://www.inkscape.org/namespaces/inkscape"
   xmlns:sodipodi="http://sodipodi.sourceforge.net/DTD/sodipodi-0.dtd"
   xmlns="http://www.w3.org/2000/svg"
   xmlns:svg="http://www.w3.org/2000/svg"><sodipodi:namedview
     id="namedview7"
     pagecolor="#ffffff"
     bordercolor="#111111"
     borderopacity="1"
     inkscape:showpageshadow="0"
     inkscape:pageopacity="0"
     inkscape:pagecheckerboard="1"
     inkscape:deskcolor="#d1d1d1"
     inkscape:document-units="mm"
     showgrid="false" /><defs
     id="defs2" /><g
     inkscape:label="Слой 1"
     inkscape:groupmode="layer"
     id="layer1"
     transform="translate(-36.877339,-18.366605)"><path
       style="fill:#ffffff;stroke-width:0.282222"
       d="m 172.88426,162.23829 c -0.97662,-0.44018 -6.09451,-5.3898 -22.15445,-21.42601 l -20.88444,-20.8536 -0.84667,0.69424 c -1.72013,1.41044 -4.87548,3.4791 -7.62,4.9957 -16.13434,8.91575 -36.161448,9.33098 -52.559618,1.08975 -5.94556,-2.98807 -10.55408,-6.30533 -15.16386,-10.9151 -7.45795,-7.45796 -12.48532,-16.367051 -15.11781,-26.790561 -4.54925,-18.013043 0.39491,-37.552898 13.07151,-51.660002 11.35943,-12.641294 28.1042,-19.745765 44.65201,-18.944948 21.239218,1.027854 39.453008,12.856086 48.976258,31.805734 7.34556,14.616409 7.89622,31.923093 1.50684,47.358216 -1.62326,3.921381 -5.26494,10.131371 -7.55264,12.879181 l -0.7049,0.84667 20.8536,20.88444 c 21.97757,22.01008 21.99418,22.02861 22.00188,24.55333 0.004,1.24602 -1.02018,3.68308 -1.86112,4.42948 -0.91659,0.81354 -3.01392,1.6259 -4.19771,1.6259 -0.62088,0 -1.70038,-0.25759 -2.39888,-0.57242 z m -72.39,-42.06857 c 1.24178,-0.1656 3.44713,-0.61701 4.90078,-1.00315 17.4708,-4.64082 30.24748,-18.72076 33.24459,-36.635681 0.51739,-3.092653 0.57594,-10.158611 0.10991,-13.264444 -1.4566,-9.707546 -5.75582,-18.400577 -12.46789,-25.210141 -8.58339,-8.708054 -18.69433,-13.133795 -30.867388,-13.511209 -7.69593,-0.238605 -13.04821,0.816829 -20.03778,3.951314 -9.70494,4.352205 -18.00005,12.647318 -22.35225,22.352259 -3.13449,6.989561 -4.18992,12.341845 -3.95132,20.037777 0.37742,12.173064 4.80316,22.284004 13.51121,30.867385 9.98686,9.84389 23.64748,14.31785 37.910138,12.41589 z"
       id="path1013" /></g></svg>
